<svg width="64" height="64" viewBox="0 0 64 64" fill="none" xmlns="http://www.w3.org/2000/svg">
  <!-- Dark aubergine background -->
  <rect width="64" height="64" rx="8" fill="#2C001E"/>

  <!-- Orange line chart (ascending) -->
  <path d="M12 42 L20 38 L28 34 L36 28 L44 24" stroke="#E95420" stroke-width="3" stroke-linecap="round" stroke-linejoin="round" fill="none"/>

  <!-- Green line chart (stable/fluctuating) -->
  <path d="M12 32 L20 30 L28 28 L36 30 L44 32 L52 30" stroke="#77DD77" stroke-width="3" stroke-linecap="round" stroke-linejoin="round" fill="none"/>

  <!-- Data points on orange line -->
  <circle cx="12" cy="42" r="2.5" fill="#E95420"/>
  <circle cx="20" cy="38" r="2.5" fill="#E95420"/>
  <circle cx="28" cy="34" r="2.5" fill="#E95420"/>
  <circle cx="36" cy="28" r="2.5" fill="#E95420"/>
  <circle cx="44" cy="24" r="2.5" fill="#E95420"/>

  <!-- Data points on green line -->
  <circle cx="12" cy="32" r="2.5" fill="#77DD77"/>
  <circle cx="20" cy="30" r="2.5" fill="#77DD77"/>
  <circle cx="28" cy="28" r="2.5" fill="#77DD77"/>
  <circle cx="36" cy="30" r="2.5" fill="#77DD77"/>
  <circle cx="44" cy="32" r="2.5" fill="#77DD77"/>
  <circle cx="52" cy="30" r="2.5" fill="#77DD77"/>
</svg>
